G04 Layer_Physical_Order=2*
G04 Layer_Color=0*
%FSLAX44Y44*%
%MOMM*%
G71*
G01*
G75*
%ADD10C,1.0160*%
%ADD11C,0.7620*%
%ADD12C,1.8500*%
%ADD13R,1.8500X1.8500*%
%ADD14C,1.5000*%
%ADD15R,1.5000X1.5000*%
%ADD16C,1.2000*%
%ADD17R,2.0000X2.0000*%
%ADD18C,2.0000*%
%ADD19R,1.5000X1.5000*%
%ADD20C,1.4000*%
%ADD21C,1.0800*%
%ADD22R,1.8500X1.8500*%
%ADD23C,1.5240*%
%ADD24R,1.5240X1.5240*%
%ADD25C,1.8600*%
%ADD26R,1.8600X1.8600*%
%ADD27R,1.4986X1.4986*%
%ADD28C,1.4986*%
%ADD29C,1.6200*%
%ADD30R,1.6200X1.6200*%
%ADD31C,1.2700*%
D10*
X467360Y981710D02*
Y1048790D01*
Y930910D02*
Y956310D01*
X411480Y946150D02*
X426720Y930910D01*
X382270Y975360D02*
X411480Y946150D01*
X426720Y930910D02*
X467360D01*
X382270Y975360D02*
Y1206500D01*
X968512Y1037590D02*
X969010D01*
Y1002030D02*
Y1037590D01*
X781050Y976630D02*
X969010D01*
X791210Y986790D02*
Y1002030D01*
X726440Y976630D02*
X781050D01*
X791210Y986790D01*
X1004570Y1047750D02*
X1027430D01*
X994410Y1037590D02*
X1004570Y1047750D01*
X1027430D02*
X1068070Y1088390D01*
X1027430Y1047750D02*
X1319530D01*
X969010Y976630D02*
X994410Y1002030D01*
Y1037590D01*
X1633220Y678180D02*
X1651000Y695960D01*
X858520Y678180D02*
X1633220D01*
X836295Y700405D02*
X858520Y678180D01*
X1727200Y695960D02*
Y723900D01*
X1644650Y820420D02*
X1687830D01*
X1727200Y781050D01*
X1644650Y795020D02*
X1686560D01*
X1751330Y730250D02*
Y795020D01*
X1686560D02*
X1751330Y730250D01*
X1697990Y848360D02*
X1751330Y795020D01*
X805180Y745490D02*
X830580Y770890D01*
X786130Y726440D02*
X805180Y745490D01*
X1036320Y777240D02*
X1045210Y786130D01*
X1004570Y745490D02*
X1036320Y777240D01*
Y749300D02*
Y777240D01*
X1029970Y742950D02*
X1036320Y749300D01*
X985520Y772160D02*
X1019810Y806450D01*
X985520Y734060D02*
Y772160D01*
X977900Y726440D02*
X985520Y734060D01*
X740410Y726440D02*
X786130D01*
X815340Y702310D02*
X834390D01*
X731520D02*
X815340D01*
X855980Y742950D01*
Y770890D01*
X1045210Y727710D02*
X1143000D01*
X1029970Y742950D02*
X1045210Y727710D01*
X1019810Y806450D02*
Y849630D01*
X1045210Y806450D02*
Y849630D01*
Y786130D02*
Y806450D01*
X656590Y810260D02*
X740410Y726440D01*
X656590Y810260D02*
Y923290D01*
X1068070Y1088390D02*
Y1122680D01*
X1319530Y1047750D02*
X1385570Y981710D01*
X1162050Y1178560D02*
X1591310D01*
X1717040Y991870D02*
X1727200Y1002030D01*
X1697990Y972820D02*
X1717040Y991870D01*
X1752600D01*
X1727200Y1002030D02*
Y1238250D01*
X1573212Y797243D02*
Y818832D01*
X1588770Y834390D02*
X1610360D01*
X1573212Y818832D02*
X1588770Y834390D01*
X1560830Y784860D02*
X1573212Y797243D01*
X1341120Y782320D02*
Y789940D01*
Y782320D02*
X1365250Y758190D01*
X1379220D01*
X1348740Y814070D02*
X1379220Y783590D01*
X1295400Y814070D02*
X1348740D01*
X1259840Y849630D02*
X1295400Y814070D01*
X1248410Y849630D02*
X1259840D01*
X675640Y974090D02*
Y980440D01*
X687070Y991870D01*
X711200D01*
X726440Y976630D01*
X675640Y942340D02*
Y974090D01*
X656590Y923290D02*
X675640Y942340D01*
X723900Y1066800D02*
X750570Y1093470D01*
X1385570Y981710D02*
X1550670D01*
X1330960Y963930D02*
X1341120Y953770D01*
X1304290Y963930D02*
X1330960D01*
X1270000D02*
X1304290D01*
X1248410Y985520D02*
X1270000Y963930D01*
X1355090Y937260D02*
X1369290Y923060D01*
X1620520Y1149350D02*
X1652270Y1117600D01*
X1591310Y1178560D02*
X1620520Y1149350D01*
Y1051560D02*
Y1149350D01*
X1550670Y981710D02*
X1620520Y1051560D01*
X1248410Y985520D02*
Y1002030D01*
X694690Y739140D02*
X731520Y702310D01*
X1634490Y967740D02*
X1657350Y990600D01*
X1677670D01*
X1700530Y1013460D01*
Y1033780D01*
X1651000Y1083310D02*
X1652270Y1084580D01*
Y1117600D01*
X608330Y830580D02*
X660400Y778510D01*
Y756920D02*
Y778510D01*
X642620Y739140D02*
X660400Y756920D01*
X642620Y739140D02*
X694690D01*
X622300D02*
X642620D01*
X608330Y1023620D02*
X651510Y1066800D01*
X608330Y830580D02*
Y1023620D01*
X923290Y1117600D02*
X979170Y1173480D01*
X890270Y1117600D02*
X923290D01*
X434340Y855980D02*
X468630D01*
X421640Y868680D02*
X434340Y855980D01*
X394970Y868680D02*
X421640D01*
X378460Y852170D02*
X394970Y868680D01*
X556260Y695960D02*
X581660D01*
X607060D01*
X657860D02*
X683260D01*
X632460D02*
X657860D01*
X607060D02*
X632460D01*
X607060D02*
Y698500D01*
X582930Y722630D02*
X607060Y698500D01*
X582930Y722630D02*
Y778510D01*
X750570Y1093470D02*
Y1106170D01*
X765810Y1121410D01*
X624840Y1186180D02*
X718820Y1092200D01*
X604520Y1206500D02*
X624840Y1186180D01*
X477520Y1206500D02*
X604520D01*
X778510Y1092200D02*
X791210Y1079500D01*
X1156970Y1173480D02*
X1162050Y1178560D01*
X1591310D02*
X1651000Y1238250D01*
X459740Y1221740D02*
X487680Y1249680D01*
X424180Y1221740D02*
X459740D01*
X1559560Y919250D02*
X1586000D01*
X1651230D01*
X1586000D02*
X1634490Y967740D01*
X1635760Y966470D01*
X1666240D01*
X1722120D02*
X1752600D01*
X1697990Y848360D02*
Y972820D01*
X1553210Y744220D02*
X1586230Y777240D01*
X1393190Y744220D02*
X1553210D01*
X1379220Y758190D02*
X1393190Y744220D01*
X1586230Y777240D02*
Y784860D01*
X1651230Y919250D02*
X1667510Y902970D01*
Y843280D02*
Y902970D01*
X1644650Y820420D02*
X1667510Y843280D01*
X624840Y1186180D02*
X821690D01*
X1516380Y919250D02*
X1559560D01*
X1512570Y923060D02*
X1516380Y919250D01*
X1445260Y923060D02*
X1512570D01*
X1634490Y784860D02*
X1644650Y795020D01*
X1586230Y784860D02*
X1634490D01*
X1610360Y834390D02*
X1624330Y820420D01*
X1644650D01*
X1537970Y762000D02*
X1560830Y784860D01*
X1443990Y762000D02*
X1537970D01*
X1422400Y783590D02*
X1443990Y762000D01*
X1379220Y783590D02*
X1422400D01*
X582930Y778510D02*
X622300Y739140D01*
X467360Y1196340D02*
X477520Y1206500D01*
X424180Y1196340D02*
X467360D01*
X1497330Y1244830D02*
X1515110Y1227050D01*
X1374370Y1247140D02*
X1394460Y1227050D01*
X1561870D02*
X1563370D01*
X382270Y1206500D02*
X397510Y1221740D01*
X424180D01*
Y1134110D02*
Y1196340D01*
X510540Y1033780D02*
Y1047750D01*
X424180Y1134110D02*
X510540Y1047750D01*
X378460Y725170D02*
Y750570D01*
Y775970D01*
Y801370D01*
Y826770D01*
Y852170D01*
X467360Y1153390D02*
X495700Y1181730D01*
X562610D01*
X516890Y974090D02*
X554990D01*
X501650Y958850D02*
X516890Y974090D01*
X554990Y999490D02*
X577850Y1022350D01*
Y1075690D01*
X510540Y1033780D02*
X552450Y1075690D01*
X510540Y980440D02*
Y1033780D01*
Y980440D02*
X516890Y974090D01*
X552450Y1075690D02*
Y1131570D01*
X562610Y1141730D01*
X577850Y1075690D02*
X598170Y1096010D01*
Y1146170D01*
X468630Y855980D02*
X501650Y889000D01*
X495300Y690880D02*
X582930Y778510D01*
X468630Y690880D02*
X495300D01*
X582930Y778510D02*
Y854710D01*
X576580Y861060D02*
X582930Y854710D01*
X576580Y861060D02*
Y927100D01*
X554990Y948690D02*
X576580Y927100D01*
X501650Y910590D02*
X551180Y861060D01*
X501650Y889000D02*
Y910590D01*
Y958850D01*
X551180Y786760D02*
Y861060D01*
X542930Y778510D02*
X551180Y786760D01*
X562610Y1181730D02*
X598170Y1146170D01*
X960892Y1045210D02*
X968512Y1037590D01*
X959622Y1043940D02*
X960892Y1045210D01*
X932180Y1043940D02*
X959622D01*
X791210Y1002030D02*
Y1060450D01*
Y1079500D01*
X922020Y1033780D02*
X932180Y1043940D01*
X723900Y1066800D02*
X759460D01*
X765810Y1060450D01*
Y1002030D02*
Y1060450D01*
X651510Y1066800D02*
X704850D01*
X737870Y1033780D01*
X704850Y1066800D02*
X723900D01*
X805180Y745490D02*
X828040D01*
X1369290Y923060D02*
X1445260D01*
X1304290Y937260D02*
X1355090D01*
X836295Y700405D02*
X862330Y726440D01*
X1285240Y1247140D02*
X1313180Y1219200D01*
X1422400Y1246100D02*
X1441450Y1227050D01*
X487680Y1249680D02*
X1497330D01*
X1539240D01*
X1561870Y1227050D01*
X1497330Y1244830D02*
Y1249680D01*
X1633220Y678180D02*
X1741170D01*
X1751330Y688340D01*
Y730250D01*
D11*
X943610Y1173480D02*
X960120Y1189990D01*
X943610Y1002030D02*
Y1024890D01*
X918210Y1065530D02*
X1010920D01*
X1061720Y1018540D02*
X1299210D01*
X1310640Y1031240D02*
X1381760Y960120D01*
X1118870Y1122680D02*
X1168400Y1073150D01*
X1216660D01*
X1080770Y1065530D02*
X1107440Y1092200D01*
X1019810Y1002030D02*
X1049020Y1031240D01*
X1310640D01*
X1299210Y1018540D02*
X1372870Y944880D01*
X1680210Y742950D02*
X1701800Y721360D01*
Y695960D02*
Y721360D01*
X1630680Y742950D02*
X1680210D01*
X1752600Y844550D02*
Y941070D01*
X1746250Y838200D02*
X1752600Y844550D01*
X1572260Y726440D02*
X1606550Y760730D01*
X1668780D01*
X1598930Y711200D02*
X1630680Y742950D01*
X758190Y817880D02*
X772160D01*
X751840Y811530D02*
X758190Y817880D01*
X814070Y797560D02*
X817880D01*
X805180Y788670D02*
X814070Y797560D01*
X805180Y770890D02*
Y788670D01*
X1117600Y769620D02*
Y784860D01*
X1090930Y742950D02*
X1117600Y769620D01*
X1055370Y742950D02*
X1090930D01*
X1012190Y713740D02*
X1017270Y708660D01*
X989330Y713740D02*
X1012190D01*
X974090Y698500D02*
X989330Y713740D01*
X1017270Y708660D02*
X1211580D01*
X1228090Y725170D01*
Y742950D01*
X1242060Y695960D02*
X1266190Y720090D01*
X1002030Y695960D02*
X1242060D01*
X999490Y698500D02*
X1002030Y695960D01*
X1499640Y1007110D02*
X1516380Y1023850D01*
X1410970Y1007110D02*
X1499640D01*
X808990Y867410D02*
X1281430D01*
X791210Y849630D02*
X808990Y867410D01*
X1281430D02*
X1303020Y845820D01*
X1191260Y881380D02*
X1306830D01*
X1203960Y894080D02*
X1319530D01*
X1306830Y881380D02*
X1379220Y808990D01*
X1319530Y894080D02*
X1379220Y834390D01*
X1107440Y1092200D02*
Y1108710D01*
X1093470Y1122680D02*
X1107440Y1108710D01*
X1303020Y788670D02*
X1365250Y726440D01*
X701040Y974090D02*
X707390Y967740D01*
Y923290D02*
Y967740D01*
Y871220D02*
Y923290D01*
X1676400Y695960D02*
Y701040D01*
X1662430Y715010D02*
X1676400Y701040D01*
X1637030Y715010D02*
X1662430D01*
X1619250Y697230D02*
X1637030Y715010D01*
X1322070Y697230D02*
X1619250D01*
X1381760Y960120D02*
X1562100D01*
X1372870Y944880D02*
X1578610D01*
X1347470Y920750D02*
X1397000Y871220D01*
X1228090Y920750D02*
X1347470D01*
X1146810Y1002030D02*
X1228090Y920750D01*
X1397000Y871220D02*
X1644650D01*
X1338580Y906780D02*
X1391920Y853440D01*
X1216660Y906780D02*
X1338580D01*
X1121410Y1002030D02*
X1216660Y906780D01*
X1391920Y853440D02*
X1637030D01*
X1096010Y1002030D02*
X1203960Y894080D01*
X1070610Y1002030D02*
X1191260Y881380D01*
X1045210Y1002030D02*
X1061720Y1018540D01*
X1384300Y1010920D02*
X1407160D01*
X1304290Y1090930D02*
X1384300Y1010920D01*
X1176020Y1090930D02*
X1304290D01*
X1407160Y1010920D02*
X1410970Y1007110D01*
X1395730Y1031470D02*
Y1062990D01*
X1637030Y853440D02*
X1644650Y845820D01*
X751840Y798830D02*
Y811530D01*
Y798830D02*
X779780Y770890D01*
X969010Y797560D02*
X982980Y811530D01*
Y835660D01*
X969010Y849630D02*
X982980Y835660D01*
X1562100Y960120D02*
X1676400Y1074420D01*
X1578610Y944880D02*
X1701800Y1068070D01*
X1338580Y1196340D02*
Y1219200D01*
X1249680Y1160780D02*
X1525040D01*
X816610Y1107440D02*
X942340Y1233170D01*
X1379220Y834390D02*
X1416050D01*
X1256030Y763270D02*
X1322070Y697230D01*
X1336040Y711200D02*
X1598930D01*
X1197610Y849630D02*
X1336040Y711200D01*
X1365250Y726440D02*
X1572260D01*
X1216660Y763270D02*
X1256030D01*
X1146810Y833120D02*
X1216660Y763270D01*
X1146810Y833120D02*
Y849630D01*
X1223010D02*
X1264920Y807720D01*
X1266190D01*
X1228090Y792480D02*
Y793750D01*
X1172210Y849630D02*
X1228090Y793750D01*
X1701800Y1068070D02*
Y1238250D01*
X1676400Y1074420D02*
Y1238250D01*
X873760Y1203960D02*
X889000D01*
X791210Y1121410D02*
X873760Y1203960D01*
X965200D02*
X1024890D01*
X1055370Y1173480D01*
X842010Y1106980D02*
X954230Y1219200D01*
X1379220Y808990D02*
X1440180D01*
X1464310Y784860D01*
X1510030D01*
X1534160Y786130D02*
Y834390D01*
Y786130D02*
X1535430Y784860D01*
X707390Y871220D02*
X728980Y849630D01*
X694690Y815340D02*
X728980Y849630D01*
X765810D01*
X855980Y796290D02*
X881380Y770890D01*
X850167Y796290D02*
X855980D01*
X828577Y817880D02*
X850167Y796290D01*
X799010Y817880D02*
X828577D01*
X861060Y819150D02*
X901700Y778510D01*
X847090Y819150D02*
X861060D01*
X816610Y849630D02*
X847090Y819150D01*
X901700Y740410D02*
Y778510D01*
X872490Y711200D02*
X901700Y740410D01*
X872490Y698500D02*
Y711200D01*
X867410Y830580D02*
X924560Y773430D01*
Y730250D02*
Y773430D01*
X897890Y703580D02*
X924560Y730250D01*
X897890Y698500D02*
Y703580D01*
X892810Y826770D02*
X941070Y778510D01*
Y718820D02*
Y778510D01*
X923290Y701040D02*
X941070Y718820D01*
X923290Y698500D02*
Y701040D01*
X918210Y825500D02*
X960120Y783590D01*
Y709930D02*
Y783590D01*
X948690Y698500D02*
X960120Y709930D01*
X767261Y849630D02*
X799010Y817880D01*
X842010Y1002030D02*
Y1106980D01*
X1046480Y1233170D02*
X1106170Y1173480D01*
X942340Y1233170D02*
X1046480D01*
X1035050Y1219200D02*
X1080770Y1173480D01*
X954230Y1219200D02*
X1035050D01*
X816610Y1002030D02*
Y1107440D01*
X1144270Y1200150D02*
X1210310D01*
X1144270Y1122680D02*
X1176020Y1090930D01*
X1395730Y1062990D02*
X1408430Y1075690D01*
X1525040Y1160780D02*
X1563370Y1122450D01*
X1131570Y1187450D02*
X1144270Y1200150D01*
X1131570Y1173480D02*
Y1187450D01*
X1150620Y1140460D02*
X1168630Y1122450D01*
X1009650Y1140460D02*
X1150620D01*
X991870Y1122680D02*
X1009650Y1140460D01*
X1168630Y1122450D02*
X1394460D01*
X1423440Y1140460D02*
X1441450Y1122450D01*
X1170940Y1140460D02*
X1423440D01*
X1156970Y1154430D02*
X1170940Y1140460D01*
X1023620Y1154430D02*
X1156970D01*
X1004570Y1173480D02*
X1023620Y1154430D01*
X1144270Y1122680D02*
X1145310Y1123720D01*
X1559560Y1023850D02*
Y1069340D01*
X1563370Y1088390D02*
Y1122450D01*
X1516380Y1066800D02*
X1526540Y1076960D01*
X1516380Y1023850D02*
Y1066800D01*
X1551940Y1076960D02*
X1559560Y1069340D01*
X1551940Y1076960D02*
X1563370Y1088390D01*
X1515110D02*
X1526540Y1076960D01*
X1515110Y1088390D02*
Y1122450D01*
X1433830Y1075690D02*
X1441450Y1083310D01*
Y1122450D01*
X1433830Y1075690D02*
X1445260Y1064260D01*
Y1027660D02*
Y1064260D01*
X1394460Y1089660D02*
X1408430Y1075690D01*
X1394460Y1089660D02*
Y1122450D01*
X1013460Y1189990D02*
X1029970Y1173480D01*
X960120Y1189990D02*
X1013460D01*
X1017270Y1118870D02*
Y1122680D01*
X1029970Y1172210D02*
Y1173480D01*
X892810Y826770D02*
Y849630D01*
X1492250Y834390D02*
X1534160D01*
X468630Y767080D02*
Y830580D01*
X867410D02*
Y849630D01*
X918210Y825500D02*
Y849630D01*
X1096010D02*
X1160780Y784860D01*
X1166400D01*
X1070610Y849630D02*
X1117600Y802640D01*
Y784860D02*
Y802640D01*
X1168400Y727710D02*
Y782860D01*
X1166400Y784860D02*
X1168400Y782860D01*
X948690Y820420D02*
Y844550D01*
X943610Y849630D02*
X948690Y844550D01*
X765810Y849630D02*
X767261D01*
X864870Y1004570D02*
X867410Y1002030D01*
X864870Y1004570D02*
Y1066800D01*
X886460Y1008380D02*
X892810Y1002030D01*
X886460Y1008380D02*
Y1062990D01*
X902970Y1017270D02*
X918210Y1002030D01*
X902970Y1017270D02*
Y1050290D01*
X918210Y1065530D01*
X886460Y1062990D02*
X906780Y1083310D01*
X1003300D01*
X1042670Y1122680D01*
X864870Y1066800D02*
X895350Y1097280D01*
X995680D01*
X1017270Y1118870D01*
D12*
X467360Y956310D02*
D03*
Y981710D02*
D03*
X707390Y923290D02*
D03*
D13*
X467360Y930910D02*
D03*
D14*
X1727200Y695960D02*
D03*
X1701800D02*
D03*
X1676400D02*
D03*
X999490Y698500D02*
D03*
X974090D02*
D03*
X948690D02*
D03*
X923290D02*
D03*
X897890D02*
D03*
X1752600Y941070D02*
D03*
Y966470D02*
D03*
X1535430Y784860D02*
D03*
X1560830D02*
D03*
X1586230D02*
D03*
X1644650Y845820D02*
D03*
Y820420D02*
D03*
Y795020D02*
D03*
X1379220Y808990D02*
D03*
Y783590D02*
D03*
Y758190D02*
D03*
X754380Y770890D02*
D03*
X779780D02*
D03*
X805180D02*
D03*
X830580D02*
D03*
X855980D02*
D03*
X1408430Y1075690D02*
D03*
X1551940Y1076960D02*
D03*
X1701800Y1238250D02*
D03*
X1676400D02*
D03*
X1651000D02*
D03*
X556260Y695960D02*
D03*
X581660D02*
D03*
X607060D02*
D03*
X632460D02*
D03*
X657860D02*
D03*
X378460Y852170D02*
D03*
Y826770D02*
D03*
Y801370D02*
D03*
Y775970D02*
D03*
Y750570D02*
D03*
X424180Y1196340D02*
D03*
D15*
X1651000Y695960D02*
D03*
X872490Y698500D02*
D03*
X1510030Y784860D02*
D03*
X881380Y770890D02*
D03*
X1433830Y1075690D02*
D03*
X1526540Y1076960D02*
D03*
X1727200Y1238250D02*
D03*
X683260Y695960D02*
D03*
D16*
X1019810Y806450D02*
D03*
X1045210D02*
D03*
X1143000Y727710D02*
D03*
X1168400D02*
D03*
X791210Y1121410D02*
D03*
X765810D02*
D03*
Y1060450D02*
D03*
X791210D02*
D03*
X1304290Y963930D02*
D03*
Y938530D02*
D03*
X1313180Y1219200D02*
D03*
X1338580D02*
D03*
X701040Y974090D02*
D03*
X675640D02*
D03*
X577850Y1075690D02*
D03*
X552450D02*
D03*
X576580Y861060D02*
D03*
X551180D02*
D03*
X969010Y1037590D02*
D03*
X994410D02*
D03*
X1055370Y742950D02*
D03*
X1029970D02*
D03*
D17*
X1516380Y1023850D02*
D03*
X1559560D02*
D03*
X1445260Y1027660D02*
D03*
X1395730Y1031470D02*
D03*
X1515110Y1227050D02*
D03*
X1563370D02*
D03*
X1441450D02*
D03*
X467360Y1153390D02*
D03*
X1394460Y1227050D02*
D03*
D18*
X1516380Y919250D02*
D03*
X1559560D02*
D03*
X1445260Y923060D02*
D03*
X1395730Y926870D02*
D03*
X1515110Y1122450D02*
D03*
X1563370D02*
D03*
X1441450D02*
D03*
X467360Y1048790D02*
D03*
X1394460Y1122450D02*
D03*
D19*
X1752600Y991870D02*
D03*
X1644650Y871220D02*
D03*
X1379220Y834390D02*
D03*
X378460Y725170D02*
D03*
X424180Y1221740D02*
D03*
D20*
X1610360Y834390D02*
D03*
X1534160D02*
D03*
X1492250D02*
D03*
X1416050D02*
D03*
X468630Y767080D02*
D03*
Y690880D02*
D03*
X694690Y815340D02*
D03*
Y739140D02*
D03*
D21*
X1166400Y784860D02*
D03*
X1117600D02*
D03*
D22*
X656590Y923290D02*
D03*
D23*
X468630Y830580D02*
D03*
X562610Y1141730D02*
D03*
Y1181730D02*
D03*
X542930Y778510D02*
D03*
X582930D02*
D03*
D24*
X468630Y855980D02*
D03*
D25*
X554990Y948690D02*
D03*
Y974090D02*
D03*
D26*
Y999490D02*
D03*
D27*
X765810Y849630D02*
D03*
D28*
X791210D02*
D03*
X816610D02*
D03*
X842010D02*
D03*
X867410D02*
D03*
X892810D02*
D03*
X918210D02*
D03*
X943610D02*
D03*
X969010D02*
D03*
X994410D02*
D03*
X1019810D02*
D03*
X1045210D02*
D03*
X1070610D02*
D03*
X1096010D02*
D03*
X1121410D02*
D03*
X1146810D02*
D03*
X1172210D02*
D03*
X1197610D02*
D03*
X1223010D02*
D03*
X1248410D02*
D03*
Y1002030D02*
D03*
X1223010D02*
D03*
X1197610D02*
D03*
X1172210D02*
D03*
X1146810D02*
D03*
X1121410D02*
D03*
X1096010D02*
D03*
X1070610D02*
D03*
X1045210D02*
D03*
X1019810D02*
D03*
X994410D02*
D03*
X969010D02*
D03*
X943610D02*
D03*
X918210D02*
D03*
X892810D02*
D03*
X867410D02*
D03*
X842010D02*
D03*
X816610D02*
D03*
X791210D02*
D03*
X765810D02*
D03*
D29*
X979170Y1173480D02*
D03*
X991870Y1122680D02*
D03*
X1004570Y1173480D02*
D03*
X1017270Y1122680D02*
D03*
X1029970Y1173480D02*
D03*
X1042670Y1122680D02*
D03*
X1055370Y1173480D02*
D03*
X1068070Y1122680D02*
D03*
X1080770Y1173480D02*
D03*
X1093470Y1122680D02*
D03*
X1106170Y1173480D02*
D03*
X1118870Y1122680D02*
D03*
X1131570Y1173480D02*
D03*
X1144270Y1122680D02*
D03*
D30*
X1156970Y1173480D02*
D03*
D31*
X943610D02*
D03*
Y1024890D02*
D03*
X1216660Y1073150D02*
D03*
X1080770Y1065530D02*
D03*
X1010920D02*
D03*
X1727200Y723900D02*
D03*
Y781050D02*
D03*
X1746250Y838200D02*
D03*
X1668780Y760730D02*
D03*
X772160Y817880D02*
D03*
X817880Y797560D02*
D03*
X1004570Y745490D02*
D03*
X977900Y726440D02*
D03*
X1341120Y789940D02*
D03*
X1303020Y788670D02*
D03*
Y845820D02*
D03*
X1210310Y1200150D02*
D03*
X1249680Y1160780D02*
D03*
X1341120Y953770D02*
D03*
X778510Y1092200D02*
D03*
X718820D02*
D03*
X1338580Y1196340D02*
D03*
X1666240Y966470D02*
D03*
X1722120D02*
D03*
X1700530Y1033780D02*
D03*
X1651000Y1083310D02*
D03*
X1266190Y720090D02*
D03*
Y807720D02*
D03*
X1228090Y792480D02*
D03*
Y742950D02*
D03*
X821690Y1186180D02*
D03*
X890270Y1117600D02*
D03*
X889000Y1203960D02*
D03*
X965200D02*
D03*
X969010Y797560D02*
D03*
X948690Y820420D02*
D03*
X922020Y1033780D02*
D03*
X737870D02*
D03*
X828040Y745490D02*
D03*
X862330Y726440D02*
D03*
M02*
